<svg width="41" height="29" viewBox="0 0 41 29" fill="none" xmlns="http://www.w3.org/2000/svg">
<path d="M17.4378 0.0451055L14.1642 3.8866C13.1841 4.20234 12.2744 4.78119 11.5056 5.57806L9.80156 7.35973C9.14812 8.04383 8.29609 8.41971 7.41844 8.41971H6.15V18.0422C7.45687 18.0873 8.69969 18.7113 9.62859 19.8013L11.9092 22.4776L12.3577 23.0038L14.0873 25.0336C14.4845 25.4997 15.138 25.4997 15.5352 25.0336C15.6441 24.9058 15.7273 24.7554 15.7722 24.5976C15.9516 24.0187 16.368 23.5827 16.8805 23.4474C17.393 23.3121 17.9311 23.4925 18.3027 23.936L18.9945 24.7329C19.7377 25.6049 20.942 25.6049 21.6787 24.7329C22.0247 24.3269 22.2105 23.8082 22.2297 23.2745C22.2553 22.6129 22.5884 22.0266 23.1009 21.7409C23.6134 21.4552 24.2092 21.5154 24.6641 21.8988C25.2662 22.4024 26.1055 22.3348 26.6436 21.7033C27.2458 20.9966 27.2458 19.854 26.6436 19.1548L21.7877 13.4565L19.4942 15.9373C17.7453 17.8317 15.0611 17.8618 13.2802 16.005C11.2494 13.885 11.2045 10.1863 13.1777 7.99872L17.6684 3.02207C19.4237 1.08253 21.7428 0 24.158 0C26.4706 0 28.7064 0.99984 30.4297 2.79655L32.358 4.81126H34.85H37.4125H39.975C40.5387 4.81126 41 5.35253 41 6.01408V21.6507C41 22.9813 40.0839 24.0563 38.95 24.0563H36.9C36.1441 24.0563 35.4778 23.5752 35.1255 22.8535H29.6866C29.4687 23.3572 29.1805 23.8383 28.8217 24.2593C27.7262 25.5448 26.208 26.0485 24.7858 25.7703C24.5552 26.3191 24.2412 26.8303 23.8505 27.2889C22.1016 29.3412 19.3661 29.5442 17.4186 27.8978C15.8106 29.4615 13.4147 29.3637 11.9092 27.5896L10.1859 25.5598L9.7375 25.0336L7.45687 22.3573C7.10453 21.9439 6.64328 21.7033 6.15 21.6582C6.15 22.9813 5.2275 24.0563 4.1 24.0563H2.05C0.916094 24.0563 0 22.9813 0 21.6507V6.01408C0 5.35253 0.46125 4.81126 1.025 4.81126H3.5875H6.15H7.41844C7.54656 4.81126 7.66828 4.75864 7.75797 4.66091L9.45563 2.88676C11.243 1.02991 13.5428 0 15.9323 0H16.5922C16.8741 0 17.1623 0.0150351 17.4378 0.0451055ZM34.85 19.245V8.41971H31.775C31.397 8.41971 31.0319 8.25432 30.7564 7.96113L28.3925 5.49536C27.2266 4.27751 25.7211 3.60845 24.158 3.60845C22.5308 3.60845 20.9677 4.33765 19.7825 5.64572L15.2917 10.6224C14.6319 11.3591 14.6447 12.5995 15.3237 13.3061C15.9195 13.9301 16.8228 13.9151 17.4058 13.2836L22.0119 8.29191C22.6333 7.61533 23.607 7.66043 24.1836 8.39716C24.7602 9.13388 24.7217 10.269 24.0939 10.9456L24.0427 11.0058L28.8089 16.5989C29.4495 17.3506 29.8659 18.2753 30.0517 19.2375H34.85V19.245ZM4.1 20.4479C4.1 20.1289 3.99201 19.8229 3.79978 19.5973C3.60756 19.3718 3.34685 19.245 3.075 19.245C2.80315 19.245 2.54244 19.3718 2.35022 19.5973C2.15799 19.8229 2.05 20.1289 2.05 20.4479C2.05 20.7669 2.15799 21.0728 2.35022 21.2984C2.54244 21.524 2.80315 21.6507 3.075 21.6507C3.34685 21.6507 3.60756 21.524 3.79978 21.2984C3.99201 21.0728 4.1 20.7669 4.1 20.4479ZM37.925 21.6507C38.1968 21.6507 38.4576 21.524 38.6498 21.2984C38.842 21.0728 38.95 20.7669 38.95 20.4479C38.95 20.1289 38.842 19.8229 38.6498 19.5973C38.4576 19.3718 38.1968 19.245 37.925 19.245C37.6532 19.245 37.3924 19.3718 37.2002 19.5973C37.008 19.8229 36.9 20.1289 36.9 20.4479C36.9 20.7669 37.008 21.0728 37.2002 21.2984C37.3924 21.524 37.6532 21.6507 37.925 21.6507Z" fill="#2B5AB2"/>
</svg>
